<mxfile host="65bd71144e" modified="2021-02-19T12:49:58.056Z" agent="5.0 (Windows NT 10.0; Win64; x64) AppleWebKit/537.36 (KHTML, like Gecko) Code/1.53.2 Chrome/87.0.4280.141 Electron/11.2.1 Safari/537.36" etag="hLssgSTlcCoJ8JSmPXYf" version="14.2.4" type="embed">
    <diagram id="YWVYqwsDgEAubkrAia7N" name="Page-1">
        <mxGraphModel dx="2588" dy="1787" grid="0" gridSize="10" guides="1" tooltips="1" connect="1" arrows="1" fold="1" page="0" pageScale="1" pageWidth="850" pageHeight="1100" math="0" shadow="0">
            <root>
                <mxCell id="0"/>
                <mxCell id="1" parent="0"/>
                <mxCell id="38" value="" style="whiteSpace=wrap;html=1;aspect=fixed;" parent="1" vertex="1">
                    <mxGeometry x="430" y="-161" width="240" height="240" as="geometry"/>
                </mxCell>
                <mxCell id="37" value="" style="whiteSpace=wrap;html=1;aspect=fixed;" parent="1" vertex="1">
                    <mxGeometry x="428" y="84" width="240" height="240" as="geometry"/>
                </mxCell>
                <mxCell id="36" value="" style="whiteSpace=wrap;html=1;aspect=fixed;" parent="1" vertex="1">
                    <mxGeometry x="112" y="84" width="240" height="240" as="geometry"/>
                </mxCell>
                <mxCell id="30" value="" style="whiteSpace=wrap;html=1;aspect=fixed;" parent="1" vertex="1">
                    <mxGeometry x="112" y="-242" width="240" height="240" as="geometry"/>
                </mxCell>
                <mxCell id="12" style="edgeStyle=orthogonalEdgeStyle;rounded=0;orthogonalLoop=1;jettySize=auto;html=1;startArrow=classic;startFill=1;" parent="1" source="2" target="3" edge="1">
                    <mxGeometry relative="1" as="geometry"/>
                </mxCell>
                <mxCell id="44" value="WS" style="edgeLabel;html=1;align=center;verticalAlign=middle;resizable=0;points=[];" vertex="1" connectable="0" parent="12">
                    <mxGeometry x="0.2602" y="-1" relative="1" as="geometry">
                        <mxPoint y="30" as="offset"/>
                    </mxGeometry>
                </mxCell>
                <mxCell id="2" value="swArenaApi" style="aspect=fixed;html=1;points=[];align=center;image;fontSize=12;image=img/lib/azure2/compute/App_Services.svg;" parent="1" vertex="1">
                    <mxGeometry x="512" y="210" width="64" height="64" as="geometry"/>
                </mxCell>
                <mxCell id="18" style="edgeStyle=orthogonalEdgeStyle;rounded=0;orthogonalLoop=1;jettySize=auto;html=1;entryX=0.5;entryY=0.938;entryDx=0;entryDy=0;entryPerimeter=0;startArrow=classic;startFill=1;" parent="1" source="3" target="15" edge="1">
                    <mxGeometry relative="1" as="geometry"/>
                </mxCell>
                <mxCell id="41" style="edgeStyle=orthogonalEdgeStyle;rounded=0;orthogonalLoop=1;jettySize=auto;html=1;" parent="1" edge="1">
                    <mxGeometry relative="1" as="geometry">
                        <mxPoint x="512" y="25" as="sourcePoint"/>
                        <mxPoint x="219.19999999999982" y="198.20000000000005" as="targetPoint"/>
                    </mxGeometry>
                </mxCell>
                <mxCell id="42" value="WS" style="edgeLabel;html=1;align=center;verticalAlign=middle;resizable=0;points=[];" parent="41" vertex="1" connectable="0">
                    <mxGeometry x="-0.0789" y="-1" relative="1" as="geometry">
                        <mxPoint as="offset"/>
                    </mxGeometry>
                </mxCell>
                <mxCell id="43" style="edgeStyle=orthogonalEdgeStyle;rounded=0;orthogonalLoop=1;jettySize=auto;html=1;startArrow=classic;startFill=1;" parent="1" edge="1">
                    <mxGeometry relative="1" as="geometry">
                        <mxPoint x="512" y="25" as="sourcePoint"/>
                        <mxPoint x="220" y="-93" as="targetPoint"/>
                        <Array as="points">
                            <mxPoint x="220" y="25"/>
                        </Array>
                    </mxGeometry>
                </mxCell>
                <mxCell id="3" value="KickassBackend" style="aspect=fixed;html=1;points=[];align=center;image;fontSize=12;image=img/lib/azure2/compute/App_Services.svg;" parent="1" vertex="1">
                    <mxGeometry x="512" y="-10" width="64" height="64" as="geometry"/>
                </mxCell>
                <mxCell id="21" style="edgeStyle=orthogonalEdgeStyle;rounded=0;orthogonalLoop=1;jettySize=auto;html=1;startArrow=classic;startFill=1;" parent="1" source="5" target="3" edge="1">
                    <mxGeometry relative="1" as="geometry">
                        <Array as="points">
                            <mxPoint x="380" y="-133"/>
                            <mxPoint x="380" y="16"/>
                        </Array>
                    </mxGeometry>
                </mxCell>
                <mxCell id="26" value="HTTP" style="edgeLabel;html=1;align=center;verticalAlign=middle;resizable=0;points=[];" parent="21" vertex="1" connectable="0">
                    <mxGeometry x="-0.4726" relative="1" as="geometry">
                        <mxPoint x="23.03" y="37" as="offset"/>
                    </mxGeometry>
                </mxCell>
                <mxCell id="5" value="KickAssWebsite" style="dashed=0;outlineConnect=0;html=1;align=center;labelPosition=center;verticalLabelPosition=bottom;verticalAlign=top;shape=mxgraph.weblogos.html5" parent="1" vertex="1">
                    <mxGeometry x="196" y="-170" width="52.400000000000006" height="74" as="geometry"/>
                </mxCell>
                <mxCell id="20" style="edgeStyle=orthogonalEdgeStyle;rounded=0;orthogonalLoop=1;jettySize=auto;html=1;entryX=-0.004;entryY=0.708;entryDx=0;entryDy=0;entryPerimeter=0;startArrow=classic;startFill=1;" parent="1" source="6" target="3" edge="1">
                    <mxGeometry relative="1" as="geometry"/>
                </mxCell>
                <mxCell id="22" value="HTTP" style="edgeLabel;html=1;align=center;verticalAlign=middle;resizable=0;points=[];" parent="20" vertex="1" connectable="0">
                    <mxGeometry x="-0.4696" y="1" relative="1" as="geometry">
                        <mxPoint x="12.74" y="-62.58" as="offset"/>
                    </mxGeometry>
                </mxCell>
                <mxCell id="6" value="KickAssPayoutsBot" style="dashed=0;outlineConnect=0;html=1;align=center;labelPosition=center;verticalLabelPosition=bottom;verticalAlign=top;shape=mxgraph.weblogos.messenger_2" parent="1" vertex="1">
                    <mxGeometry x="187" y="195.2" width="64.4" height="64.8" as="geometry"/>
                </mxCell>
                <mxCell id="10" style="edgeStyle=orthogonalEdgeStyle;rounded=0;orthogonalLoop=1;jettySize=auto;html=1;entryX=0;entryY=0.5;entryDx=0;entryDy=0;entryPerimeter=0;" parent="1" source="7" target="5" edge="1">
                    <mxGeometry relative="1" as="geometry"/>
                </mxCell>
                <mxCell id="23" value="HTTPS" style="edgeLabel;html=1;align=center;verticalAlign=middle;resizable=0;points=[];" parent="10" vertex="1" connectable="0">
                    <mxGeometry x="0.0825" relative="1" as="geometry">
                        <mxPoint y="-27.33" as="offset"/>
                    </mxGeometry>
                </mxCell>
                <mxCell id="11" style="edgeStyle=orthogonalEdgeStyle;rounded=0;orthogonalLoop=1;jettySize=auto;html=1;" parent="1" edge="1" target="6">
                    <mxGeometry relative="1" as="geometry">
                        <mxPoint x="89" y="234" as="targetPoint"/>
                        <mxPoint x="-47" y="30.028571428571468" as="sourcePoint"/>
                        <Array as="points">
                            <mxPoint x="73" y="30"/>
                            <mxPoint x="73" y="228"/>
                        </Array>
                    </mxGeometry>
                </mxCell>
                <mxCell id="25" value="WSS" style="edgeLabel;html=1;align=center;verticalAlign=middle;resizable=0;points=[];" parent="11" vertex="1" connectable="0">
                    <mxGeometry x="-0.0701" relative="1" as="geometry">
                        <mxPoint y="116.76999999999998" as="offset"/>
                    </mxGeometry>
                </mxCell>
                <mxCell id="7" value="Actor" style="shape=umlActor;verticalLabelPosition=bottom;verticalAlign=top;html=1;outlineConnect=0;" parent="1" vertex="1">
                    <mxGeometry x="-80" width="30" height="60" as="geometry"/>
                </mxCell>
                <mxCell id="15" value="KickassDatabase" style="aspect=fixed;html=1;points=[];align=center;image;fontSize=12;image=img/lib/azure2/databases/SQL_Database.svg;" parent="1" vertex="1">
                    <mxGeometry x="520" y="-140" width="48" height="64" as="geometry"/>
                </mxCell>
                <mxCell id="39" value="An actor would be able to login to use a website or the Discord application&lt;br&gt;&lt;div&gt;&lt;span&gt;in order to access the application. The website is currently done through an&lt;/span&gt;&lt;/div&gt;&lt;div&gt;Express application, however will in the future be migrated to a react frontend&lt;/div&gt;&lt;div&gt;The discord applicition acts as another frontend where a bot listens for user&lt;/div&gt;&lt;div&gt;commands in order to modifiy data and show the user information. The bot is&lt;/div&gt;&lt;div&gt;built through NodeJs and the Discord.js library is used for quick handling.&lt;br&gt;The two frontends would be able to fetch live data through the backend.&lt;/div&gt;" style="text;html=1;resizable=0;autosize=1;align=left;verticalAlign=middle;points=[];fillColor=none;strokeColor=none;rounded=0;" parent="1" vertex="1">
                    <mxGeometry x="-410" y="-470" width="430" height="100" as="geometry"/>
                </mxCell>
                <mxCell id="40" value="In order to fetch game information an API was created through reverse engineering the game&lt;br&gt;This api is being wrapped around a websocket for quick access of several hundred requests&lt;br&gt;per minute. Requests are made by backend every minute to update the database of information." style="text;html=1;resizable=0;autosize=1;align=left;verticalAlign=middle;points=[];fillColor=none;strokeColor=none;rounded=0;" parent="1" vertex="1">
                    <mxGeometry x="730" y="-445" width="530" height="50" as="geometry"/>
                </mxCell>
                <mxCell id="45" value="" style="aspect=fixed;html=1;points=[];align=center;image;fontSize=12;image=img/lib/azure2/compute/Virtual_Machine.svg;" vertex="1" parent="1">
                    <mxGeometry x="260" y="-237" width="69" height="64" as="geometry"/>
                </mxCell>
                <mxCell id="46" value="" style="aspect=fixed;html=1;points=[];align=center;image;fontSize=12;image=img/lib/azure2/compute/Virtual_Machine.svg;" vertex="1" parent="1">
                    <mxGeometry x="260" y="90" width="69" height="64" as="geometry"/>
                </mxCell>
                <mxCell id="47" value="" style="aspect=fixed;html=1;points=[];align=center;image;fontSize=12;image=img/lib/azure2/compute/Virtual_Machine.svg;" vertex="1" parent="1">
                    <mxGeometry x="590" y="97" width="69" height="64" as="geometry"/>
                </mxCell>
                <mxCell id="48" value="" style="aspect=fixed;html=1;points=[];align=center;image;fontSize=12;image=img/lib/azure2/compute/Virtual_Machine.svg;" vertex="1" parent="1">
                    <mxGeometry x="590" y="-154" width="69" height="64" as="geometry"/>
                </mxCell>
                <mxCell id="52" value="Discord Application" style="aspect=fixed;html=1;points=[];align=center;image;fontSize=12;image=img/lib/azure2/internet_of_things/Digital_Twins.svg;" vertex="1" parent="1">
                    <mxGeometry x="41" y="57" width="68" height="69" as="geometry"/>
                </mxCell>
            </root>
        </mxGraphModel>
    </diagram>
</mxfile>